<?xml version="1.0" standalone="no"?>
<!DOCTYPE svg PUBLIC "-//W3C//DTD SVG 20010904//EN"
 "http://www.w3.org/TR/2001/REC-SVG-20010904/DTD/svg10.dtd">
<svg version="1.0" xmlns="http://www.w3.org/2000/svg"
 width="1024.000000pt" height="1024.000000pt" viewBox="0 0 1024.000000 1024.000000"
 preserveAspectRatio="xMidYMid meet">
<metadata>
Created by potrace 1.11, written by Peter Selinger 2001-2013
</metadata>
<g transform="translate(0.000000,1024.000000) scale(0.100000,-0.100000)"
fill="#000000" stroke="none">
<path d="M0 7994 c0 -1796 3 -2245 12 -2237 7 5 31 15 53 21 64 18 489 106
755 157 395 74 651 125 705 138 l50 13 75 126 c41 70 87 150 102 178 29 52 44
59 92 40 39 -14 33 -51 -17 -123 -44 -62 -107 -169 -107 -181 0 -12 60 -6 401
43 410 58 664 80 686 58 17 -17 20 -74 5 -89 -6 -6 -165 -28 -354 -49 -419
-47 -692 -84 -775 -105 l-62 -16 -104 -202 c-58 -110 -128 -241 -157 -291 -83
-144 -170 -320 -170 -346 0 -13 9 -69 20 -124 58 -293 20 -531 -98 -622 -35
-26 -53 -33 -89 -33 -39 0 -50 5 -78 35 -47 49 -58 91 -53 199 4 73 14 121 52
241 27 83 63 187 82 233 19 45 34 93 34 106 0 12 -20 73 -44 134 -55 140 -61
162 -42 162 19 0 64 -53 111 -130 l38 -63 19 24 c10 13 61 107 112 209 52 102
126 244 165 315 47 87 66 131 57 133 -46 10 -870 -154 -1300 -259 -66 -16
-125 -29 -131 -29 -6 0 -18 19 -27 43 -15 39 -17 -162 -17 -2830 l-1 -2873
5120 0 5120 0 0 2841 c0 2547 -2 2840 -15 2829 -9 -7 -124 -28 -257 -46 -301
-41 -342 -50 -608 -125 -292 -83 -663 -225 -914 -351 -198 -99 -186 -88 -236
-230 -121 -347 -250 -586 -354 -658 -58 -39 -98 -47 -131 -26 -112 74 -75 294
86 509 63 84 245 277 316 336 57 46 77 91 90 195 5 40 3 47 -9 45 -9 -2 -67
-65 -130 -139 -62 -74 -126 -141 -141 -150 -25 -14 -30 -13 -65 5 -58 31 -56
59 24 249 76 184 91 205 129 188 14 -6 25 -18 25 -27 0 -8 -22 -70 -49 -137
-62 -157 -66 -171 -51 -166 7 2 54 53 104 113 137 164 205 206 250 156 21 -23
22 -63 6 -161 -7 -39 -10 -73 -9 -75 2 -2 63 24 134 57 307 141 499 215 835
319 278 87 481 135 625 148 61 6 159 18 219 27 92 14 109 15 117 3 5 -8 9 947
9 2249 l0 2262 -5120 0 -5120 0 0 -2246z m5671 -1800 c121 -21 185 -45 238
-90 101 -87 119 -213 55 -403 -19 -58 -46 -125 -60 -148 -13 -23 -24 -49 -24
-57 0 -17 8 -17 158 -1 33 4 47 0 62 -15 37 -37 27 -85 -50 -237 -38 -76 -78
-164 -90 -197 l-20 -58 30 -28 c35 -32 32 -53 -11 -75 -35 -19 -60 -19 -104
-1 -30 13 -35 20 -35 47 0 40 54 176 137 343 43 89 60 133 53 140 -14 14 -145
-9 -185 -32 -16 -10 -74 -70 -128 -132 -178 -209 -294 -317 -512 -482 -243
-183 -322 -223 -429 -216 -78 5 -121 32 -137 88 -11 37 -10 45 24 112 42 85
92 138 231 243 110 82 408 240 606 320 181 74 175 70 234 159 147 221 174 442
66 540 -63 57 -147 78 -327 84 -92 2 -180 0 -220 -7 -114 -20 -345 -78 -398
-101 l-50 -21 -17 21 c-33 41 -11 54 202 128 253 87 488 112 701 76z m-498
-215 c19 -26 15 -42 -95 -359 -47 -135 -93 -269 -103 -297 -23 -74 -43 -96
-78 -88 -31 8 -31 8 -13 66 8 24 63 191 121 372 100 309 107 327 130 327 13 0
30 -9 38 -21z m-3143 -24 l24 -25 -24 -58 c-13 -31 -108 -212 -213 -401 -191
-347 -230 -426 -224 -444 2 -6 97 81 213 193 115 112 223 211 239 221 69 43
135 12 135 -63 0 -32 -16 -70 -75 -179 -41 -75 -75 -144 -75 -153 0 -15 4 -14
38 3 20 10 91 58 157 107 66 48 193 136 282 195 90 59 176 118 193 132 52 44
92 52 169 32 l67 -18 40 26 c47 31 146 67 185 67 40 0 108 -29 119 -51 16 -28
12 -98 -7 -130 -21 -36 -67 -58 -149 -72 -52 -9 -73 -8 -125 7 l-62 17 -34
-33 c-70 -66 -118 -207 -93 -267 14 -35 42 -55 87 -65 24 -6 64 3 165 37 184
62 463 167 647 243 84 35 162 64 174 64 24 0 57 -27 57 -47 0 -16 -38 -34
-134 -63 -37 -12 -123 -48 -190 -82 -132 -66 -325 -144 -506 -204 -239 -79
-373 -40 -387 112 -4 49 0 73 25 140 16 45 48 109 70 142 42 60 43 72 10 72
-17 0 -69 -34 -538 -353 -206 -141 -251 -166 -303 -167 -35 0 -67 49 -67 102
0 44 45 162 101 266 21 41 39 75 39 78 0 18 -50 -26 -273 -235 -140 -131 -264
-242 -276 -246 -32 -10 -71 29 -71 70 0 35 120 284 229 475 40 69 121 225 181
347 60 121 115 223 122 226 25 10 35 7 58 -18z m4118 -297 c17 -17 15 -63 -3
-78 -20 -17 -45 -9 -68 22 l-20 27 24 20 c28 23 50 26 67 9z m1992 -18 c6 -11
8 -25 5 -31 -8 -11 -249 -170 -297 -195 -30 -16 -31 -16 -55 15 -14 17 -29 31
-34 31 -29 0 -354 -256 -415 -326 -82 -96 -101 -131 -145 -268 -23 -72 -47
-134 -53 -138 -16 -11 -64 -10 -87 2 -25 14 -24 46 2 95 32 63 229 581 229
604 0 12 -6 21 -13 21 -30 0 -235 -143 -550 -385 -109 -83 -138 -92 -177 -50
-13 14 -29 25 -35 25 -6 0 -35 -18 -64 -39 -29 -22 -95 -61 -146 -87 -89 -45
-96 -47 -133 -36 -48 15 -68 36 -75 84 -8 51 6 94 54 169 140 217 428 380 604
342 33 -7 41 -13 43 -36 4 -31 8 -29 -112 -52 -123 -22 -224 -76 -327 -173
-76 -71 -115 -124 -138 -184 -8 -21 -6 -31 7 -48 l18 -22 64 38 c86 50 207
142 292 222 63 60 71 65 96 56 44 -15 38 -40 -22 -98 -57 -54 -71 -86 -38 -86
10 0 104 68 208 151 220 176 269 211 381 269 74 39 86 43 119 34 21 -5 46 -21
58 -37 l20 -27 -22 -75 c-22 -75 -27 -105 -16 -105 3 0 76 57 161 128 181 147
218 172 256 172 26 0 77 -40 77 -61 0 -14 30 2 124 63 95 63 119 69 136 38z
m-3627 -1332 c50 -19 57 -49 57 -240 0 -190 -4 -204 -60 -233 -39 -20 -79 -19
-117 5 -47 29 -56 54 -61 177 -7 168 3 237 39 272 41 41 73 45 142 19z m1937
2 c30 -16 52 -49 57 -89 l6 -41 -35 0 c-30 0 -35 4 -43 33 -8 26 -16 33 -41
35 -40 4 -56 -16 -52 -65 3 -36 6 -40 71 -71 56 -27 71 -39 84 -70 19 -45 13
-138 -11 -174 -32 -50 -107 -63 -163 -28 -35 21 -47 39 -58 88 -7 32 -6 32 34
32 35 0 40 -3 43 -26 4 -34 27 -49 61 -40 20 5 28 14 33 43 11 58 -4 85 -66
114 -76 37 -93 58 -98 127 -3 48 0 63 20 92 35 52 101 69 158 40z m-2482 -22
c-3 -31 -6 -33 -45 -36 l-43 -3 0 -215 0 -215 -32 3 -33 3 -3 212 -2 212 -38
3 c-34 3 -37 6 -40 36 l-3 32 121 0 121 0 -3 -32z m1094 -174 c3 -184 5 -208
21 -218 12 -8 22 -8 35 0 15 10 18 35 22 215 l5 204 38 3 37 3 0 -196 c0 -208
-6 -241 -50 -280 -16 -14 -36 -20 -72 -20 -43 0 -53 4 -79 33 l-29 32 0 215 0
215 35 0 35 0 2 -206z m742 196 c46 -17 68 -66 64 -143 -3 -57 -8 -71 -30 -93
l-26 -26 34 -101 c42 -126 43 -129 2 -125 -32 3 -34 5 -68 108 -29 87 -38 105
-55 105 -19 0 -20 -8 -23 -108 l-3 -108 -32 3 -32 3 -3 248 -2 247 74 0 c41 0
86 -4 100 -10z"/>
<path d="M5360 5182 c-183 -85 -229 -111 -423 -239 -165 -109 -226 -169 -227
-224 0 -66 69 -63 215 10 79 39 139 82 290 205 166 136 315 281 315 308 0 16
-27 7 -170 -60z"/>
<path d="M3080 5487 c-54 -29 -60 -43 -19 -51 54 -11 77 -7 106 18 24 20 25
26 14 40 -19 22 -50 20 -101 -7z"/>
<path d="M4417 4243 c-4 -3 -7 -80 -7 -170 0 -162 0 -164 24 -174 17 -8 29 -8
45 0 20 11 21 19 21 169 0 110 -4 162 -12 170 -13 13 -60 16 -71 5z"/>
<path d="M5700 4175 l0 -75 34 0 c46 0 66 22 66 71 0 61 -14 79 -60 79 l-40 0
0 -75z"/>
<path d="M8027 4858 c-95 -101 -190 -229 -233 -314 -32 -64 -35 -76 -27 -110
12 -55 34 -54 92 3 67 65 231 365 255 466 11 45 -13 33 -87 -45z"/>
<path d="M1072 4855 c-70 -230 -99 -393 -73 -410 26 -15 74 75 96 183 15 69
18 214 6 267 -7 28 -9 25 -29 -40z"/>
</g>
</svg>
